<svg width="89" height="89" viewBox="0 0 89 89" fill="none" xmlns="http://www.w3.org/2000/svg">
<path opacity="0.5" d="M44.5003 81.5834C27.0192 81.5834 18.2787 81.5834 12.846 76.1507C7.41699 70.7254 7.41699 61.9812 7.41699 44.5001C7.41699 27.019 7.41699 18.2785 12.846 12.8457C18.2824 7.41675 27.0192 7.41675 44.5003 7.41675C61.9814 7.41675 70.722 7.41675 76.1509 12.8457C81.5837 18.2822 81.5837 27.019 81.5837 44.5001C81.5837 61.9812 81.5837 70.7217 76.1509 76.1507C70.7257 81.5834 61.9814 81.5834 44.5003 81.5834Z" fill="url(#paint0_linear_13987_27196)"/>
<path d="M33.2636 33.2636C33.7851 32.7428 34.492 32.4502 35.229 32.4502C35.966 32.4502 36.6729 32.7428 37.1944 33.2636L44.4998 40.569L51.8052 33.2636C52.0599 32.9904 52.3669 32.7712 52.7081 32.6192C53.0492 32.4672 53.4175 32.3854 53.791 32.3789C54.1644 32.3723 54.5354 32.441 54.8817 32.5808C55.228 32.7207 55.5426 32.9289 55.8067 33.193C56.0708 33.4571 56.279 33.7717 56.4189 34.118C56.5588 34.4644 56.6274 34.8353 56.6209 35.2087C56.6143 35.5822 56.5325 35.9505 56.3805 36.2916C56.2285 36.6328 56.0093 36.9398 55.7361 37.1945L48.4307 44.4999L55.7361 51.8053C56.0093 52.0599 56.2285 52.367 56.3805 52.7081C56.5325 53.0493 56.6143 53.4176 56.6209 53.791C56.6274 54.1645 56.5588 54.5354 56.4189 54.8817C56.279 55.228 56.0708 55.5426 55.8067 55.8067C55.5426 56.0708 55.228 56.279 54.8817 56.4189C54.5354 56.5588 54.1644 56.6275 53.791 56.6209C53.4175 56.6143 53.0492 56.5326 52.7081 56.3806C52.3669 56.2286 52.0599 56.0094 51.8052 55.7361L44.4998 48.4307L37.1944 55.7361C36.6672 56.2274 35.9698 56.4949 35.2493 56.4822C34.5288 56.4694 33.8413 56.1775 33.3317 55.668C32.8222 55.1584 32.5303 54.4709 32.5176 53.7504C32.5048 53.0299 32.7723 52.3325 33.2636 51.8053L40.569 44.4999L33.2636 37.1945C32.7427 36.673 32.4502 35.9661 32.4502 35.229C32.4502 34.492 32.7427 33.7851 33.2636 33.2636Z" fill="url(#paint1_linear_13987_27196)"/>
<defs>
<linearGradient id="paint0_linear_13987_27196" x1="7.41699" y1="7.41675" x2="81.5837" y2="81.5834" gradientUnits="userSpaceOnUse">
<stop stop-color="#FF5630"/>
<stop offset="1" stop-color="#B71D18"/>
</linearGradient>
<linearGradient id="paint1_linear_13987_27196" x1="32.4502" y1="32.3784" x2="56.693" y2="56.5494" gradientUnits="userSpaceOnUse">
<stop stop-color="#FF5630"/>
<stop offset="1" stop-color="#B71D18"/>
</linearGradient>
</defs>
</svg>
