<svg width="114" height="14" viewBox="0 0 114 14" fill="none" xmlns="http://www.w3.org/2000/svg">
<path d="M5.76207 0C6.62864 0 7.49528 0.0967993 8.36185 0.290167C9.22836 0.483526 9.98496 0.747715 10.6316 1.08286V4.71818C9.98495 4.27346 9.22187 3.91896 8.34241 3.65469C7.46937 3.38398 6.60924 3.24858 5.76207 3.24858C5.12834 3.24858 4.64333 3.32919 4.30705 3.49031C3.97079 3.65144 3.80258 3.88028 3.80255 4.17675C3.80255 4.41524 3.90927 4.61516 4.12268 4.77631C4.33608 4.93099 4.63678 5.03413 5.02476 5.08569L7.5275 5.41446C8.3294 5.51759 9.02472 5.74314 9.61322 6.09121C10.2081 6.43926 10.664 6.89366 10.9809 7.4544C11.3043 8.01515 11.466 8.6565 11.466 9.37839C11.466 10.2614 11.2267 11.0544 10.7481 11.7569C10.276 12.4595 9.60668 13.0105 8.74014 13.4101C7.88004 13.8033 6.88732 14 5.76207 14C4.82436 14 3.88337 13.8614 2.9392 13.5842C2.00151 13.3006 1.1446 12.9043 0.368576 12.3951V8.70164C1.02821 9.32042 1.84636 9.81676 2.82287 10.1906C3.80584 10.5644 4.78557 10.7514 5.76207 10.7514C6.36996 10.7514 6.83883 10.6676 7.16864 10.5C7.49843 10.3324 7.6634 10.081 7.66342 9.7459C7.66342 9.49453 7.57279 9.28826 7.39173 9.12713C7.21712 8.96598 6.95194 8.86285 6.59626 8.81774L4.21001 8.48897C3.3693 8.37295 2.632 8.13767 1.99824 7.78316C1.37096 7.42865 0.879458 6.96456 0.523782 6.39091C0.174571 5.81081 6.42379e-07 5.13722 0 4.37019C0 3.4936 0.236074 2.7266 0.708147 2.06915C1.1867 1.4117 1.85925 0.902386 2.72583 0.541431C3.59886 0.18048 4.61096 0 5.76207 0Z" fill="#102FF6"/>
<path d="M20.1635 8.0152L22.5402 0.232042H27.9143V13.768H24.0728V4.73756L21.1821 13.5745H19.0578L16.0992 4.71833V13.768H12.2577V0.232042H17.8064L20.1635 8.0152Z" fill="#102FF6"/>
<path fill-rule="evenodd" clip-rule="evenodd" d="M41.4667 0.232042C42.3139 0.232042 43.061 0.40603 43.7077 0.754097C44.3608 1.10215 44.8652 1.58882 45.2208 2.21401C45.583 2.83921 45.7641 3.56116 45.7641 4.37973C45.7641 5.07586 45.6282 5.70435 45.3566 6.26512C45.085 6.8259 44.697 7.28997 44.1926 7.65737C43.6881 8.01832 43.0932 8.26334 42.4077 8.39225L46.1231 13.7678H43.0577L39.5267 8.48897H37.7223V13.7678H35.1227V0.232042H41.4667ZM37.7223 6.38122H41.0011C41.415 6.38122 41.7772 6.29737 42.0876 6.12981C42.4044 5.96222 42.647 5.72694 42.8151 5.42399C42.9897 5.12106 43.0771 4.7698 43.0771 4.37019C43.0771 3.98346 42.9897 3.6418 42.8151 3.34531C42.647 3.04236 42.4044 2.81032 42.0876 2.64918C41.7772 2.4816 41.415 2.39776 41.0011 2.39776H37.7223V6.38122Z" fill="#102FF6"/>
<path d="M56.6925 2.37839H50.0284V5.74307H55.8099V7.87004H50.0284V11.6215H56.7314V13.7678H47.4286V0.232042H56.6925V2.37839Z" fill="#102FF6"/>
<path d="M68.2094 2.39776H64.0091V13.7678H61.4093V2.39776H57.209V0.232042H68.2094V2.39776Z" fill="#102FF6"/>
<path fill-rule="evenodd" clip-rule="evenodd" d="M79.0226 13.7678H76.3357L75.1619 10.2292H70.3116L69.1281 13.7678H66.4994L71.2817 0.232042H74.2307L79.0226 13.7678ZM71.0003 8.16021H74.4732L72.7465 2.92951L71.0003 8.16021Z" fill="#102FF6"/>
<path d="M82.5695 13.7678H79.9697V0.232042H82.5695V13.7678Z" fill="#102FF6"/>
<path d="M87.297 11.6021H94V13.7678H84.6974V0.232042H87.297V11.6021Z" fill="#102FF6"/>
</svg>
